<?xml version="1.0" standalone="no"?>
<!DOCTYPE svg PUBLIC "-//W3C//DTD SVG 20010904//EN"
 "http://www.w3.org/TR/2001/REC-SVG-20010904/DTD/svg10.dtd">
<svg version="1.0" xmlns="http://www.w3.org/2000/svg"
 width="200.000000pt" height="200.000000pt" viewBox="0 0 200.000000 200.000000"
 preserveAspectRatio="xMidYMid meet">

<g transform="translate(0.000000,0.000000) scale(0.100000,-0.100000)"
fill="#000000" stroke="none">
<path d="M520 -340 c-117 -33 -226 -145 -268 -276 -20 -62 -22 -85 -18 -179
6 -113 22 -171 81 -282 93 -176 274 -365 517 -539 110 -78 120 -78 230 0 243
174 424 363 517 539 59 111 75 169 81 282 4 94 2 117 -18 179 -39 119 -121
213 -228 262 -55 25 -191 30 -258 10 -62 -19 -131 -70 -172 -127 l-37 -53 -37
52 c-40 57 -96 99 -160 122 -59 21 -173 26 -230 10z m210 -124 c69 -32 128
-117 153 -219 14 -58 34 -84 64 -84 30 0 50 26 64 84 25 104 84 186 157 221
53 25 157 25 209 0 56 -27 113 -88 144 -154 23 -49 26 -68 26 -156 -1 -91 -4
-107 -34 -179 -19 -43 -57 -113 -84 -155 -83 -124 -307 -337 -458 -435 -27
-17 -27 -17 -130 60 -132 97 -312 277 -377 377 -27 42 -65 111 -83 154 -30 71
-33 87 -34 179 0 96 2 104 35 170 40 78 108 137 175 153 49 12 129 4 173 -16z"/>
</g>
</svg>


