<?xml version="1.0" standalone="no"?>
<!DOCTYPE svg PUBLIC "-//W3C//DTD SVG 20010904//EN"
 "http://www.w3.org/TR/2001/REC-SVG-20010904/DTD/svg10.dtd">
<svg version="1.0" xmlns="http://www.w3.org/2000/svg"
 width="200.000000pt" height="200.000000pt" viewBox="0 0 200.000000 200.000000"
 preserveAspectRatio="xMidYMid meet">

<g transform="translate(0.000000,0.000000) scale(0.100000,-0.100000)"
fill="#000000" stroke="none">
<!-- diamonds -->
<path d="M900 -200 c-7 -8 -28 -42 -47 -76 -63 -111 -202 -273 -417 -487
-150 -148 -214 -218 -214 -234 0 -15 54 -75 183 -199 243 -237 359 -374 482
-572 16 -25 27 -33 50 -33 31 0 28 -3 107 123 71 113 172 228 389 444 145 144
219 225 219 238 0 14 -72 93 -214 233 -215 214 -354 376 -417 487 -43 77 -55
90 -84 90 -13 0 -30 -6 -37 -14z m109 -261 c74 -100 235 -276 386 -422 l115
-111 -130 -129 c-165 -162 -300 -310 -378 -415 -34 -46 -63 -83 -65 -83 -2 0
-31 37 -65 83 -78 105 -213 253 -378 415 l-130 129 115 111 c154 148 321 332
396 435 33 46 63 79 68 75 4 -4 34 -44 66 -88z"/>

<!-- hearts -->
<path d="M520 -340 c-117 -33 -226 -145 -268 -276 -20 -62 -22 -85 -18 -179
6 -113 22 -171 81 -282 93 -176 274 -365 517 -539 110 -78 120 -78 230 0 243
174 424 363 517 539 59 111 75 169 81 282 4 94 2 117 -18 179 -39 119 -121
213 -228 262 -55 25 -191 30 -258 10 -62 -19 -131 -70 -172 -127 l-37 -53 -37
52 c-40 57 -96 99 -160 122 -59 21 -173 26 -230 10z m210 -124 c69 -32 128
-117 153 -219 14 -58 34 -84 64 -84 30 0 50 26 64 84 25 104 84 186 157 221
53 25 157 25 209 0 56 -27 113 -88 144 -154 23 -49 26 -68 26 -156 -1 -91 -4
-107 -34 -179 -19 -43 -57 -113 -84 -155 -83 -124 -307 -337 -458 -435 -27
-17 -27 -17 -130 60 -132 97 -312 277 -377 377 -27 42 -65 111 -83 154 -30 71
-33 87 -34 179 0 96 2 104 35 170 40 78 108 137 175 153 49 12 129 4 173 -16z"/>

<!-- clubs -->
<path d="M880 -300 c-111 -19 -205 -79 -267 -172 -63 -94 -84 -233 -49 -325
8 -22 -4 -33 -39 -33 -36 0 -144 -61 -190 -107 -72 -72 -105 -148 -110 -254
-3 -64 0 -101 13 -140 60 -190 259 -309 450 -269 147 30 244 120 189 174 -24
24 -49 19 -111 -21 -55 -37 -58 -38 -153 -38 -90 0 -100 2 -140 29 -98 65
-146 155 -137 261 11 150 120 253 274 260 37 2 71 4 75 4 4 1 15 12 24 26 15
24 15 27 -12 77 -25 46 -29 64 -29 138 0 100 18 143 87 206 62 58 121 78 207
72 202 -15 319 -224 227 -406 -30 -59 -31 -71 -12 -97 11 -15 28 -20 77 -21
94 -2 141 -18 197 -69 68 -61 96 -121 96 -205 0 -83 -30 -155 -88 -208 -60
-55 -118 -75 -208 -71 -71 4 -101 16 -180 71 -12 9 -25 9 -45 2 -23 -8 -29
-16 -31 -46 -3 -31 2 -40 30 -61 170 -127 391 -109 533 45 110 119 135 297 63
442 -47 93 -160 181 -264 206 l-42 10 10 43 c16 70 5 185 -25 249 -53 117
-170 207 -297 227 -36 6 -67 10 -70 10 -3 -1 -27 -5 -53 -9z"/>

<!-- spades -->
<path d="M900 -300 c-6 -7 -30 -41 -53 -75 -94 -137 -226 -274 -422 -437 -42
-35 -94 -87 -115 -115 -129 -172 -112 -411 39 -561 85 -85 134 -105 256 -105
88 0 107 4 160 28 75 35 125 82 125 117 0 60 -51 66 -124 15 -57 -39 -146 -61
-205 -50 -124 23 -221 150 -221 291 0 129 34 188 173 304 121 100 289 267 365
362 l61 78 48 -63 c72 -94 234 -258 361 -364 121 -102 155 -144 178 -219 35
-116 5 -226 -85 -315 -70 -69 -125 -87 -216 -70 -54 10 -136 49 -150 71 -3 6
-19 10 -35 10 -40 0 -68 -40 -52 -75 17 -36 108 -92 181 -111 208 -53 395 57
466 275 27 84 18 217 -21 301 -39 82 -66 114 -173 203 -183 153 -334 312 -430
455 -35 52 -46 62 -71 62 -16 0 -34 -6 -40 -12z"/>

<!-- bottom bar -->
<path d="M660 -1700 c-31 -16 -39 -61 -14 -88 16 -18 34 -19 288 -19 230 0
275 2 294 16 25 17 29 51 8 80 -14 18 -30 19 -283 22 -203 2 -274 -1 -293 -11z"/>

</g>
</svg>


